<svg xmlns="http://www.w3.org/2000/svg" width="16" height="16" fill="currentColor" class="bi bi-star" viewBox="0 0 16 16">
  <path d="M2 2.865c0-.1.04-.2.11-.27l3.64-3.64a.5.5 0 0 1 .85.355l1.1 4.25a.5.5 0 0 0 .47.36h4.5a.5.5 0 0 1 .3.9l-3.64 3.64a.5.5 0 0 0-.11.27l1.1 4.25a.5.5 0 0 1-.85.355l-3.64-3.64a.5.5 0 0 0-.85-.355l-1.1-4.25a.5.5 0 0 1-.47-.36H2.5a.5.5 0 0 1-.3-.9h4.5a.5.5 0 0 0 .47-.36l1.1-4.25a.5.5 0 0 1 .85-.355l3.64 3.64a.5.5 0 0 1 .11.27l-1.1 4.25a.5.5 0 0 0 .85.355l3.64-3.64a.5.5 0 0 1 .11-.27l-4.25-1.1a.5.5 0 0 0-.36-.47H2.865z"/>
</svg>